<?xml version="1.0" standalone="no"?><!DOCTYPE svg PUBLIC "-//W3C//DTD SVG 1.1//EN" "http://www.w3.org/Graphics/SVG/1.1/DTD/svg11.dtd"><svg t="1522932926691" class="icon" style="" viewBox="0 0 1024 1024" version="1.1" xmlns="http://www.w3.org/2000/svg" p-id="10594" xmlns:xlink="http://www.w3.org/1999/xlink" width="200" height="200"><defs><style type="text/css"></style></defs><path d="M552.96 119.77216V92.16a40.96 40.96 0 0 0-81.92 0v27.61216C255.86688 140.45184 87.04 322.21696 87.04 542.72a40.96 40.96 0 0 0 40.96 40.96h343.04v215.04c0 0.48128 0.05632 0.94208 0.07168 1.41312-0.01536 0.47616-0.07168 0.93696-0.07168 1.41312C471.04 850.80576 431.99488 890.88 384 890.88s-87.04-40.07424-87.04-89.32864a40.96 40.96 0 0 0-81.92 0C215.04 895.97952 290.83648 972.8 384 972.8s168.96-76.82048 168.96-171.24864c0-0.48128-0.05632-0.94208-0.07168-1.41312 0.01536-0.47616 0.07168-0.93696 0.07168-1.41312v-215.04h343.04a40.96 40.96 0 0 0 40.96-40.96c0-220.50816-168.82688-402.27328-384-422.95296zM512 199.68c175.2832 0 320.18944 132.17792 340.51072 302.08H171.48928C191.81056 331.85792 336.7168 199.68 512 199.68z" p-id="10595"></path></svg>