<?xml version="1.0" standalone="no"?><!DOCTYPE svg PUBLIC "-//W3C//DTD SVG 1.1//EN" "http://www.w3.org/Graphics/SVG/1.1/DTD/svg11.dtd"><svg t="1522932873722" class="icon" style="" viewBox="0 0 1024 1024" version="1.1" xmlns="http://www.w3.org/2000/svg" p-id="9191" xmlns:xlink="http://www.w3.org/1999/xlink" width="200" height="200"><defs><style type="text/css"></style></defs><path d="M954.058556 493.157863c-43.23264-44.004213-422.432055-429.957449-423.904593-431.429986-4.974291-4.975315-12.541641-7.496741-22.49227-7.496741-8.815783 0-15.785521 2.49789-20.711717 7.424086L66.122465 497.179456l0 8.266267c0 18.583241 6.119371 36.461423 17.232476 50.341548 10.562567 13.193487 24.000624 21.069875 35.945677 21.069875l65.450664 0 0 314.966485c0 55.979966 38.562271 75.842339 71.585385 75.842339 2.1295 0 14.32117-0.169869 90.969874-0.169869s70.608128-75.43711 70.608128-75.43711L417.91467 646.39592c0-9.287527 7.496741-16.362666 11.249205-16.362666l48.461735 0 0-40.904619-48.462758 0c-27.782763 0-52.154847 26.759457-52.154847 57.267285l0 245.477854c0 0-1.861394 34.718733-29.751604 34.718733-11.766998 0-89.919962 0.169869-90.920756 0.169869-30.67872 0-30.67872-26.297946-30.67872-34.938744L225.656925 535.952528 121.464911 535.952528c-3.078105-1.87879-11.418051-9.230222-13.795191-22.902616L508.582669 98.130971c52.142567 53.054333 362.372168 368.81081 410.150334 417.437298-0.699941 9.211802-2.52859 13.670348-3.717671 15.657608-0.86367 1.438769-1.606591 2.684132-6.225795 2.684132L804.540218 533.910009l-1.075495 355.077018c-2.52245 8.207939-13.405311 37.604456-39.892569 37.604456 0 0-40.298821 0-75.330686 0s-39.161928-21.097504-39.149649-34.718733c0.079818-84.74408 0.188288-237.419318-0.065492-246.077511-0.245593-8.330736-3.206018-21.429055-10.780531-33.213449-9.723455-15.123442-24.049742-23.454178-40.342824-23.454178l-55.19509 0 0 40.904619 55.19509 0c5.418406 0 10.094916 12.181437 10.235109 16.96437 0.222057 7.557116 0.138146 149.410891 0.048095 244.87615-0.020466 21.3871 0.603751 75.622328 80.055291 75.622328 51.746548 0 75.330686 0 75.330686 0 26.396183 0 48.812729-12.697183 64.826448-36.719296 10.906397-16.35448 14.9679-32.391734 15.395642-34.167171l1.528819-321.79603 63.466474 0c17.935488 0 32.611745-8.020674 41.328267-22.584368 6.597255-11.024078 9.80532-25.65838 9.80532-44.737924l0-8.366551L954.058556 493.157863z" p-id="9192"></path></svg>