<?xml version="1.0" standalone="no"?><!DOCTYPE svg PUBLIC "-//W3C//DTD SVG 1.1//EN" "http://www.w3.org/Graphics/SVG/1.1/DTD/svg11.dtd"><svg t="1522932858765" class="icon" style="" viewBox="0 0 1024 1024" version="1.1" xmlns="http://www.w3.org/2000/svg" p-id="8211" xmlns:xlink="http://www.w3.org/1999/xlink" width="200" height="200"><defs><style type="text/css"></style></defs><path d="M833.808 497.8l-10.752-197.744 39.816-0.184a31.272 31.272 0 0 0-0.144-62.536h-0.16l-143.84 0.672a31.28 31.28 0 0 0-31.12 31.424 31.28 31.28 0 0 0 31.264 31.112h0.16l41.472-0.184 3.168 58.872-391.752-40.64c-0.368-0.032-0.672 0.12-1.04 0.12l35.328-107.784c0.488-1.464 0.272-2.96 0.52-4.432 0.152-0.36 0.456-0.544 0.608-0.912a31.296 31.296 0 0 0-17.008-40.824L277.648 118.32a92.96 92.96 0 0 0-71.6 3.488 93.048 93.048 0 0 0-48.152 53.064 93 93 0 0 0 3.448 71.576 93.08 93.08 0 0 0 53.08 48.184 31.28 31.28 0 0 0 39.992-18.872 31.28 31.28 0 0 0-18.888-40 30.856 30.856 0 0 1-17.632-16 30.848 30.848 0 0 1-1.136-23.76 30.888 30.888 0 0 1 16-17.648c7.528-3.544 15.944-3.968 22.416-1.68l84.944 35.056L245.408 500.64a205.2 205.2 0 0 0-38.264-3.696C92.928 496.944 0 589.856 0 704.088s92.928 207.152 207.144 207.152c114.232 0 207.144-92.912 207.144-207.152 0-79.08-44.544-147.872-109.864-182.776l47.696-145.44c3.944 2.536 8.336 4.432 13.312 4.944l401.68 41.68 4.304 79.64c-92.4 20.76-161.712 103.352-161.712 201.952 0 114.232 92.912 207.152 207.144 207.152S1024 818.328 1024 704.088c0-108.52-83.904-197.616-190.192-206.288zM351.752 704.088c0 79.728-64.88 144.616-144.608 144.616-79.736 0-144.608-64.888-144.608-144.616 0-79.72 64.872-144.608 144.608-144.608 6.288 0 12.272 1.072 18.352 1.864l-35.056 106.928a31.272 31.272 0 0 0 59.424 19.48l34.56-105.432c40.336 25.68 67.328 70.528 67.328 121.768z m465.096 144.616c-79.72 0-144.608-64.888-144.608-144.616 0-65.04 43.488-119.568 102.688-137.68l6.144 113.312a31.24 31.24 0 0 0 31.168 29.56c0.584 0 1.168 0 1.744-0.064a31.232 31.232 0 0 0 29.504-32.88l-6.232-114.784c70.016 10.016 124.216 69.808 124.216 142.528 0 79.736-64.896 144.624-144.624 144.624z" fill="#838384" p-id="8212"></path></svg>