<?xml version="1.0" standalone="no"?><!DOCTYPE svg PUBLIC "-//W3C//DTD SVG 1.1//EN" "http://www.w3.org/Graphics/SVG/1.1/DTD/svg11.dtd"><svg t="1522916003361" class="icon" style="" viewBox="0 0 1024 1024" version="1.1" xmlns="http://www.w3.org/2000/svg" p-id="941" xmlns:xlink="http://www.w3.org/1999/xlink" width="200" height="200"><defs><style type="text/css"></style></defs><path d="M761.6 198.4c-19.2-32 19.2-38.4 19.2-38.4L780.8 128 243.2 128l0 32c0 0 38.4 6.4 19.2 38.4S140.8 358.4 0 358.4c0 0 44.8 89.6 185.6 102.4l0 268.8L320 729.6 320 467.2l38.4 0 0 262.4 76.8 0L435.2 467.2l140.8 0 0 262.4 76.8 0L652.8 467.2 704 467.2l0 262.4 140.8 0L844.8 454.4C979.2 448 1024 358.4 1024 358.4 883.2 358.4 780.8 224 761.6 198.4zM140.8 844.8l736 0 0-102.4L140.8 742.4 140.8 844.8z" p-id="942"></path></svg>