<?xml version="1.0" standalone="no"?><!DOCTYPE svg PUBLIC "-//W3C//DTD SVG 1.1//EN" "http://www.w3.org/Graphics/SVG/1.1/DTD/svg11.dtd"><svg t="1522916105328" class="icon" style="" viewBox="0 0 1024 1024" version="1.1" xmlns="http://www.w3.org/2000/svg" p-id="3373" xmlns:xlink="http://www.w3.org/1999/xlink" width="200" height="200"><defs><style type="text/css"></style></defs><path d="M327.52829653333333 371.21896319999996c-43.690666666666665 0-77.67229653333334 33.981629866666665-77.67229653333334 77.67229653333334s33.981629866666665 77.67229653333334 77.67229653333334 77.67229546666667 77.67229653333334-33.981629866666665 77.67229653333334-77.67229546666667-36.40888853333333-77.67229653333334-77.67229653333334-77.67229653333334z" fill="" p-id="3374"></path><path d="M698.8989631999999 213.44711146666668c-143.20829653333334 70.3905184-237.87140693333333 63.10874026666668-385.93422293333333 0-259.71674026666665 0-407.7795552 686.9143701333333-213.59881386666666 686.9143701333333 165.05362986666665 0 186.8989632-201.46251840000002 410.20681386666666-201.46251840000002 182.04444479999998 0 288.84385173333334 199.0352597333333 410.20681493333336 199.03525866666664 189.32622186666669 0-7.281778133333333-684.4871114666666-220.880592-684.4871104z m-371.3706666666667 364.0888885333333c-70.3905184 0-126.2174816-55.8269632-126.2174816-126.2174816s55.8269632-126.2174816 126.2174816-126.2174816 126.2174816 55.8269632 126.2174816 126.2174816-58.254221866666654 126.2174816-126.2174816 126.2174816z m288.84385173333334-118.93570346666667c-19.4180736-4.8545184-29.127111466666666-24.272593066666666-21.845333333333333-43.690666666666665 4.8545184-16.990814933333333 24.272593066666666-29.127111466666666 43.690666666666665-21.845333333333333 19.4180736 4.8545184 29.127111466666666 24.272593066666666 21.845333333333333 43.690666666666665-4.8545184 16.990814933333333-24.272593066666666 26.699851733333333-43.690666666666665 21.845333333333333z m84.95407359999999 53.399703466666665c-4.8545184 16.990814933333333-24.272593066666666 29.127111466666666-43.690666666666665 21.845333333333333-19.4180736-4.8545184-29.127111466666666-24.272593066666666-21.845333333333333-43.690666666666665 4.8545184-16.990814933333333 24.272593066666666-29.127111466666666 43.690666666666665-21.845333333333333 16.990814933333333 7.281778133333333 29.127111466666666 26.699851733333333 21.845333333333333 43.690666666666665z m4.8545184-82.52681493333333c-19.4180736-4.8545184-29.127111466666666-24.272593066666666-21.845333333333333-43.690666666666665 4.8545184-16.990814933333333 24.272593066666666-29.127111466666666 43.690666666666665-21.845333333333333 19.4180736 4.8545184 29.127111466666666 24.272593066666666 21.845333333333333 43.690666666666665-7.281778133333333 16.990814933333333-26.699851733333333 26.699851733333333-43.690666666666665 21.845333333333333z m87.38133333333333 58.254221866666654c-4.8545184 16.990814933333333-24.272593066666666 29.127111466666666-43.690666666666665 21.845333333333333-19.4180736-4.8545184-29.127111466666666-24.272593066666666-21.845333333333333-43.690666666666665 4.8545184-16.990814933333333 24.272593066666666-29.127111466666666 43.690666666666665-21.845333333333333 16.990814933333333 4.8545184 26.699851733333333 24.272593066666666 21.845333333333333 43.690666666666665z" fill="" p-id="3375"></path></svg>