<?xml version="1.0" standalone="no"?><!DOCTYPE svg PUBLIC "-//W3C//DTD SVG 1.1//EN" "http://www.w3.org/Graphics/SVG/1.1/DTD/svg11.dtd"><svg t="1522997575146" class="icon" style="" viewBox="0 0 1024 1024" version="1.1" xmlns="http://www.w3.org/2000/svg" p-id="2814" xmlns:xlink="http://www.w3.org/1999/xlink" width="200" height="200"><defs><style type="text/css"></style></defs><path d="M972.8 281.6H48c-25.6 0-48 22.4-48 48v361.6c0 25.6 22.4 48 48 48h57.6c0 67.2 54.4 118.4 118.4 118.4s118.4-54.4 118.4-118.4h352c0 67.2 54.4 118.4 118.4 118.4 67.2 0 118.4-54.4 118.4-118.4h41.6c22.4 0 41.6-12.8 48-35.2V326.4c0-22.4-22.4-44.8-48-44.8zM48 521.6V352h128v169.6h-128zM224 800c-35.2 0-60.8-28.8-60.8-60.8 0-35.2 28.8-60.8 60.8-60.8 35.2 0 60.8 28.8 60.8 60.8 0 35.2-25.6 60.8-60.8 60.8z m115.2-278.4h-128V352h128v169.6z m160 179.2H384v-352h115.2v352z m140.8 0h-115.2V352H640v348.8z m44.8-179.2V352h128v169.6h-128z m128 278.4c-35.2 0-60.8-28.8-60.8-60.8 0-35.2 28.8-60.8 60.8-60.8 35.2 0 60.8 28.8 60.8 60.8 3.2 35.2-25.6 60.8-60.8 60.8z m160-208h-48l-76.8-73.6v-169.6h121.6v243.2h3.2z" fill="#666666" p-id="2815"></path></svg>