<?xml version="1.0" standalone="no"?><!DOCTYPE svg PUBLIC "-//W3C//DTD SVG 1.1//EN" "http://www.w3.org/Graphics/SVG/1.1/DTD/svg11.dtd"><svg t="1522997529106" class="icon" style="" viewBox="0 0 1024 1024" version="1.1" xmlns="http://www.w3.org/2000/svg" p-id="1203" xmlns:xlink="http://www.w3.org/1999/xlink" width="200" height="200"><defs><style type="text/css"></style></defs><path d="M133.565217 59.436522v712.19942A29.710841 29.710841 0 0 0 163.246377 801.391304h623.304348c16.398841 0 29.681159-13.30458 29.681159-29.755362V59.436522A29.710841 29.710841 0 0 0 786.550725 29.681159H163.246377C146.847536 29.681159 133.565217 42.985739 133.565217 59.436522z m-29.681159 0C103.884058 26.609159 130.448696 0 163.246377 0h623.304348c32.782841 0 59.362319 26.594319 59.362318 59.436522v712.19942c0 32.827362-26.564638 59.436522-59.362318 59.436522H163.246377c-32.782841 0-59.362319-26.594319-59.362319-59.436522V59.436522zM415.536232 831.072464h118.724638v29.681159H415.536232v-29.681159z" fill="#4A4A4A" p-id="1204"></path><path d="M126.144928 207.768116h697.507246v29.681159H126.144928zM920.115942 1024H623.304348c-129.625043-0.296812-163.246377-32.716058-163.246377-163.246377h29.681159c0 114.227942 20.21287 133.394551 133.565218 133.565218h296.811594v29.681159zM400.725333 528.324638v200.347826c0 14.454725 18.565565 20.383536 26.935653 8.592695l200.347826-281.971014c6.975072-9.824464-0.044522-23.433275-12.095073-23.433275h-148.405797v29.681159h119.652174L430.406493 682.162087V513.484058a14.84058 14.84058 0 0 0-14.84058-14.84058h-59.362319l138.017392-184.023188-23.744928-17.808696-155.826087 207.768116c-7.346087 9.779942-0.356174 23.744928 11.872464 23.744928h74.202898z" fill="#4A4A4A" p-id="1205"></path></svg>