<?xml version="1.0" standalone="no"?><!DOCTYPE svg PUBLIC "-//W3C//DTD SVG 1.1//EN" "http://www.w3.org/Graphics/SVG/1.1/DTD/svg11.dtd"><svg t="1522997557213" class="icon" style="" viewBox="0 0 1024 1024" version="1.1" xmlns="http://www.w3.org/2000/svg" p-id="2195" xmlns:xlink="http://www.w3.org/1999/xlink" width="200" height="200"><defs><style type="text/css"></style></defs><path d="M388.293025 293.433052 290.220383 342.346065 290.220383 440.292841 731.420897 440.292841 731.420897 342.346065 633.347231 293.433052Z" p-id="2196"></path><path d="M648.035768 650.751111c-19.291368 18.790972-19.539009 48.913013 0 68.452022 19.664875 19.664875 49.783847 19.417235 68.63724 0 19.352767-19.788695 19.105127-49.41034 0-68.452022C697.567881 631.583562 667.95033 631.459742 648.035768 650.751111z" p-id="2197"></path><path d="M304.968272 650.751111c-19.35379 18.790972-19.603477 48.913013 0 68.452022 19.602454 19.664875 48.973388 19.664875 68.63724 0 19.543102-19.539009 19.293415-49.65798 0-68.452022C353.694019 631.459742 324.820412 631.459742 304.968272 650.751111z" p-id="2198"></path><path d="M510.821663 4.444219C229.235426 4.444219 1.044284 232.698806 1.044284 514.222621c0 281.521768 228.192166 509.777379 509.777379 509.777379 281.58419 0 509.777379-228.255611 509.777379-509.777379C1020.599042 232.698806 792.405853 4.444219 510.821663 4.444219zM829.432141 782.925433c0 24.393573-24.517393 49.906643-49.036833 49.906643l-539.149337 0c-24.517393 0-49.034786-25.51307-49.034786-49.906643L192.211185 293.433052l147.046031-97.823979 343.129918 0 147.043984 97.823979L829.431118 782.925433z" p-id="2199"></path></svg>