<?xml version="1.0" standalone="no"?><!DOCTYPE svg PUBLIC "-//W3C//DTD SVG 1.1//EN" "http://www.w3.org/Graphics/SVG/1.1/DTD/svg11.dtd"><svg t="1522916043005" class="icon" style="" viewBox="0 0 1024 1024" version="1.1" xmlns="http://www.w3.org/2000/svg" p-id="1192" xmlns:xlink="http://www.w3.org/1999/xlink" width="200" height="200"><defs><style type="text/css"></style></defs><path d="M992.64 351.232c-0.32-0.128-0.896-0.384-1.536-0.576l-463.488-176.576-14.528-5.376L512 170.752c-0.128 0-0.256 0-0.384 0l-1.088-2.112-477.632 181.952c-0.64 0.256-1.216 0.448-1.536 0.576l-17.6 7.36 2.24 4.48c-5.376 6.784-8.448 15.168-8.448 24.192 0 9.024 3.072 17.472 8.448 24.256l-2.304 4.544 17.728 7.296c0.32 0.128 0.576 0.256 0.896 0.32l29.12 11.072-25.088 188.48c-17.728 11.072-28.736 30.528-28.736 51.968 0 33.856 27.52 61.44 61.376 61.44 33.856 0 61.44-27.584 61.44-61.44 0-15.488-5.824-30.144-16.32-41.408l22.72-170.304 41.728 15.872-39.616 316.8 3.136 0.704c3.968 13.632 15.104 24.256 29.056 27.392l1.024 4.096 174.784-43.712 154.176 132.224 3.072-3.84c4.032 0.896 8.192 1.088 12.352 0.576l2.752 4.672 178.624-133.952 176.896 44.224 0.896-4.352c13.824-3.328 24.832-14.016 28.672-27.712l3.904-0.704-59.52-317.632 143.04-54.464c0.256-0.128 0.576-0.192 0.832-0.32l17.728-7.424-2.24-4.48c5.376-6.72 8.384-15.168 8.384-24.192 0-9.024-3.008-17.408-8.384-24.192l2.368-4.608L992.64 351.232zM682.944 699.648l-0.96-1.6-168.384 126.272-147.264-126.208-0.896 1.472-0.128-0.448-139.584 34.88 28.224-225.856 257.728 98.176 0.064 0.192 262.272-99.904 42.496 226.496L682.944 699.648zM512 522.56l-355.072-135.296L512 251.968l355.072 135.296L512 522.56z" p-id="1193"></path></svg>