<?xml version="1.0" standalone="no"?><!DOCTYPE svg PUBLIC "-//W3C//DTD SVG 1.1//EN" "http://www.w3.org/Graphics/SVG/1.1/DTD/svg11.dtd"><svg t="1522920986242" class="icon" style="" viewBox="0 0 1025 1024" version="1.1" xmlns="http://www.w3.org/2000/svg" p-id="4342" xmlns:xlink="http://www.w3.org/1999/xlink" width="200.1953125" height="200"><defs><style type="text/css"></style></defs><path d="M512.01844 0C229.234796 0 0 229.234796 0 512.011064c0 282.761516 229.234796 511.988936 512.01844 511.988936 282.768892 0 512.003688-229.22742 512.003688-511.988936C1024.014752 229.234796 794.787331 0 512.01844 0zM512.01844 999.032666c-268.983383 0-487.036354-218.052971-487.036354-487.021602S243.035057 24.982086 512.01844 24.982086c268.983383 0 487.036354 218.052971 487.036354 487.028978S781.001822 999.032666 512.01844 999.032666z" p-id="4343"></path><path d="M349.291902 500.725976 349.291902 500.725976c-10.237713 0-18.889614-3.87971-25.018966-11.218705-12.966787-15.540967-9.160836-40.884471-8.268355-45.811555 11.285088-46.622901 68.521872-113.905626 193.137268-152.179038l3.083115-0.855601c0.870353-0.302411 1.8956-0.634325 2.928222-0.958864 43.296382-13.298701 84.372626-20.032875 122.166605-20.032875 51.926155 0 96.594449 13.519978 122.542775 37.07852 3.193754 3.201129 27.150593 28.382364 17.237418 51.999914-9.507502 22.717693-40.596812 25.35088-63.152235 25.35088-0.781843 0.029503-1.991486 0.051631-3.215881 0.051631-5.561409 0-11.498988-0.383545-18.041388-0.877729-0.67858 0.103262-1.364537 0.154893-2.035741 0.154893l-1.453047-0.081135c-0.494184-0.029503-0.995743-0.08851-1.489927-0.162269 1.320281 5.045098-0.140142 10.650762-4.13049 14.397707-18.904366 17.997133-42.573546 36.451571-74.422571 36.451571-17.25217 0-34.983772-5.627792-52.700622-16.728483-1.799713-1.062126-3.518292-2.765953-4.757439-4.779567l-5.642544-9.433743 0.516311 13.83714c0.154893 2.035741-0.309787 4.484532-1.349785 6.70467-16.160541 36.61384-43.340637 55.304305-80.692064 55.304305-12.575866 0-24.598541-1.998862-34.260936-3.614178-5.458147-0.921984-9.699275-4.59517-11.454733-9.426367-0.449928 0.442552-0.92936 0.855601-1.438295 1.239147-0.973615 0.789219-2.124252 1.453047-3.385526 1.954607C386.517939 490.650532 365.917122 500.7186 349.291902 500.725976zM637.327168 291.796962c-35.581217 0-74.481578 6.409635-115.609453 19.044507-0.848226 0.265531-1.73333 0.545815-2.44879 0.80397l-3.923965 1.113757c-115.432432 35.455828-167.919154 95.178282-177.699563 135.524314-1.224395 6.83006-1.475175 20.940107 3.614178 27.047331 1.26865 1.51943 3.333895 3.274888 8.024951 3.274888 7.781547 0 23.123366-4.831198 52.073672-27.703784 2.028365-21.34578 12.096434-41.002485 29.968177-58.512811l29.083072-28.493002-10.658138 39.291282c-3.156874 11.631754-8.253603 32.719378-9.426367 51.365588 7.523392 1.18014 15.954016 2.264393 24.222371 2.264393 28.05045 0 47.117085-12.981539 59.869971-40.818088l-3.66581-98.364659 48.93155 81.835325c13.74863 8.297859 26.95882 12.4431 39.483055 12.4431 21.655567 0 39.52731-12.465228 54.404449-25.933574-11.425229-14.722245-27.445628-29.326476-36.57696-37.20391l-30.779523-26.567899 39.999366 7.302116c24.657548 4.506659 44.019218 15.150046 57.627706 31.657252 7.523392 0.567942 14.073168 1.017871 19.73784 0.80397 24.76081-0.007376 39.947735-4.189497 43.126737-11.779271 3.385526-8.069206-6.712046-21.994857-12.140689-27.475132C723.06433 303.214815 683.817303 291.796962 637.327168 291.796962z" p-id="4344"></path><path d="M481.423313 294.216249l-3.230633-10.606507c-4.455028-14.648486 3.798575-30.204205 18.402806-34.673985 2.640563-0.811346 5.384388-1.224395 8.150341-1.224395 12.288207 0 22.946345 7.892185 26.53102 19.649329l3.223257 10.562252L481.423313 294.216249z" p-id="4345"></path><path d="M653.458205 776.288639c-11.226081 0-20.984362-7.206229-24.274002-17.938126L539.81811 467.062486c-4.078858-13.387212 3.451909-27.615273 16.794866-31.716259 2.434039-0.752339 4.949212-1.128509 7.479137-1.128509 11.226081 0 20.984362 7.220981 24.266626 17.96763l89.380844 291.265899c4.100986 13.379836-3.451909 27.600521-16.816993 31.738387C658.532806 775.912469 656.025009 776.288639 653.458205 776.288639zM564.084736 456.345341c-0.324538 0-0.649077 0.051631-0.96624 0.147517-1.711203 0.523687-2.670066 2.367656-2.146379 4.100986l89.366093 291.265899c0.626949 2.057869 2.847087 2.537301 4.041979 2.190635 1.740706-0.545815 2.729073-2.389783 2.198011-4.108362L567.197355 458.653989C566.710547 457.060801 565.242748 456.345341 564.084736 456.345341z" p-id="4346"></path><path d="M567.787425 772.718716c-4.779567 0-9.514878-1.615316-13.320829-4.565666l-52.022041-40.132132c-21.773581 4.927084-42.721064 5.664671-64.029964 2.205386l-139.101613 41.592555c-2.043117 0.604822-4.145241 0.907233-6.247366 0.907233-9.684523 0-18.070892-6.23999-20.8811-15.540967-1.681699-5.590913-1.084254-11.498988 1.689075-16.625221 2.765953-5.111481 7.353747-8.858425 12.915156-10.532748l85.914183-25.682794c-48.89467-31.561366-91.121551-89.675879-125.758656-173.215031-1.032622-2.44879-1.666948-5.126233-1.85872-7.921689-1.489927-6.365379-0.051631-13.084801 3.990348-18.292168 4.086234-5.295878 10.252465-8.371617 16.927631-8.452752 11.617002-2.079997 23.374146 4.381269 27.843925 15.238556l0.169645 0.390921 201.531013 155.542436 52.730125-15.776995c1.416168-1.069502 2.375032-1.829217 2.765953-2.146379l0.08851-0.073759c10.156579-8.873177 26.973572-7.693037 35.824621 2.507797 4.455028 5.140984 6.638287 11.712888 6.151479 18.498693-0.486808 6.756301-3.584675 12.90778-8.710908 17.333305-0.059007 0.059007-12.634873 11.122818-33.766752 22.18663l30.462361 23.499535c9.522254 7.361123 11.285088 21.072873 3.953469 30.580375C580.901729 769.620848 574.610109 772.718716 567.787425 772.718716zM437.086933 707.530739l2.596308 0.46468c20.969611 3.746944 40.972982 2.854463 62.576917-2.692194l5.229495-1.342409 0.862977 0.663829 16.927631-7.029208c27.202224-11.277712 44.37326-26.132723 44.535529-26.28024 0.951488-0.818722 1.18014-1.696451 1.224395-2.308649 0.036879-0.501559-0.022128-1.482551-0.796594-2.389783-0.84085-0.96624-1.902976-1.106381-2.456166-1.106381s-1.371913 0.132766-2.116876 0.789219l-0.007376-0.014752c-1.438295 1.283402-3.857582 3.097867-5.826941 4.521411l-1.534182 1.121133-67.275349 20.128761L275.92408 526.039977l-2.470918-5.804813c-0.811346-1.976734-2.566804-2.293897-3.798575-1.976734l-1.659572 0.405673-1.703827-0.103262 0.855601 2.751201c0.007376 0.501559 0.081135 0.921984 0.2139 1.253899 37.985752 91.593607 84.549647 150.357197 138.430408 174.704958l26.117971 11.816151L437.086933 707.530739z" p-id="4347"></path><path d="M436.504239 689.393464" p-id="4348"></path></svg>