<?xml version="1.0" standalone="no"?><!DOCTYPE svg PUBLIC "-//W3C//DTD SVG 1.1//EN" "http://www.w3.org/Graphics/SVG/1.1/DTD/svg11.dtd"><svg t="1522921040884" class="icon" style="" viewBox="0 0 1024 1024" version="1.1" xmlns="http://www.w3.org/2000/svg" p-id="5661" xmlns:xlink="http://www.w3.org/1999/xlink" width="200" height="200"><defs><style type="text/css"></style></defs><path d="M443.4 852.3c-209.2 0-379.5-170.2-379.5-379.5v-13.6h759v13.6c0 209.3-170.2 379.5-379.5 379.5z m-352-365.9c7.2 188 162.3 338.7 352 338.7s344.9-150.7 352-338.7h-704z" fill="#4D4D4D" p-id="5662"></path><path d="M261.1 738.1c-55.4-41.8-98.3-97.8-124.1-161.9l25.3-10.1c23.9 59.5 63.7 111.5 115.2 150.3l-16.4 21.7zM863.3 632.9c-32.2 0-62.2-15.9-80.2-42.6l22.5-15.2c13 19.2 34.5 30.7 57.7 30.7 38.4 0 69.6-31.2 69.6-69.6s-31.2-69.6-69.6-69.6c-16.1 0-31.7 5.6-44.1 15.8l-17.3-21c17.2-14.2 39-22 61.4-22 53.4 0 96.8 43.4 96.8 96.8 0 53.3-43.4 96.7-96.8 96.7zM319.2 405.9c-5.6 0-10.8-3.5-12.8-9-20.4-57.1 5.8-90.5 28.9-120 17.8-22.6 34.6-44 34.6-76.8 0-66-31.7-92.7-32-93-5.8-4.8-6.7-13.3-1.9-19.1 4.8-5.8 13.3-6.6 19.1-1.9 1.7 1.4 41.9 35.3 41.9 114 0 42.2-21.5 69.5-40.4 93.6-22.4 28.5-40.1 51-24.7 94 2.5 7.1-1.1 14.9-8.2 17.4-1.4 0.5-2.9 0.8-4.5 0.8zM427.9 405.9c-5.6 0-10.8-3.5-12.8-9-20.4-57.1 5.8-90.5 28.9-120 17.8-22.6 34.6-44 34.6-76.8 0-65.1-30.8-91.9-32.1-93-5.7-4.8-6.5-13.4-1.7-19.1 4.8-5.7 13.2-6.6 19-1.8 1.7 1.4 41.9 35.3 41.9 114 0 42.2-21.5 69.5-40.4 93.6-22.4 28.5-40.1 51-24.7 94 2.5 7.1-1.1 14.9-8.2 17.4-1.5 0.4-3 0.7-4.5 0.7zM536.5 405.9c-5.6 0-10.8-3.5-12.8-9-20.4-57.1 5.8-90.5 28.9-120 17.8-22.6 34.6-44 34.6-76.8 0-65.1-30.8-91.9-32.1-93-5.7-4.8-6.5-13.4-1.7-19.1 4.8-5.7 13.2-6.6 19-1.8 1.7 1.4 41.9 35.3 41.9 114 0 42.2-21.5 69.5-40.4 93.6-22.4 28.5-40.1 51-24.7 94 2.5 7.1-1.1 14.9-8.2 17.4-1.4 0.4-3 0.7-4.5 0.7zM137.4 913.8h612V941h-612z" fill="#4D4D4D" p-id="5663"></path></svg>