<?xml version="1.0" standalone="no"?><!DOCTYPE svg PUBLIC "-//W3C//DTD SVG 1.1//EN" "http://www.w3.org/Graphics/SVG/1.1/DTD/svg11.dtd"><svg t="1522921025684" class="icon" style="" viewBox="0 0 1024 1024" version="1.1" xmlns="http://www.w3.org/2000/svg" p-id="4898" xmlns:xlink="http://www.w3.org/1999/xlink" width="200" height="200"><defs><style type="text/css"></style></defs><path d="M512.30034 556.48619c-109.50502 0-198.596104-89.089038-198.596103-198.594057 0-109.507066 89.091084-198.59815 198.596103-198.59815 109.506043 0 198.597127 89.092108 198.597128 198.59815-0.001023 109.50502-89.091084 198.594057-198.597128 198.594057z m0-357.836874c-87.806835 0-159.243841 71.434959-159.24384 159.242817 0 87.804788 71.437006 159.241794 159.24384 159.241794 87.807858 0 159.243841-71.437006 159.243841-159.241794-0.005117-87.807858-71.437006-159.242817-159.243841-159.242817z" fill="" p-id="4899"></path><path d="M522.666432 827.856761c-16.702404 0-34.392298-4.6366-54.075593-14.178931-14.178931-6.871501-59.06728-30.091342-91.843778-47.047525l-0.774642-0.401136c-10.495028-5.426593-19.523659-10.097986-25.496698-13.175068-9.206686-4.733814-15.731286-6.938016-20.522405-6.938016-4.63967 0-9.67843 2.102894-18.592451 7.766894l-42.744523 27.770484a8.452509 8.452509 0 0 1-6.952342 1.019213 8.397251 8.397251 0 0 1-5.307889-4.620228l-75.910901-168.499645c-1.88186-4.178159-0.032746-9.153474 4.122901-11.086499l7.099698-3.305279c7.723915-3.589758 76.437903-35.482119 109.860107-48.662303 18.203594-7.17133 34.469046-10.653641 49.728588-10.653641 29.434379 0 49.235354 12.459776 70.196759 25.651217l0.465604 0.291642c1.312902 0.825808 2.597151 1.63422 3.89061 2.441608 12.712533 7.944949 50.53086 35.479049 55.843866 39.353287 5.085832 2.823302 41.326221 22.23235 75.709309 22.23235 27.877931 0 49.89948 0 65.603137 4.709255 18.086937 5.41329 26.5067 16.817014 26.506701 35.883256 0 16.204054-10.30367 28.375258-29.798677 35.19764-14.367219 5.028527-28.558429 5.339612-28.691459 5.339611H487.656057c-13.126972 0-29.071106-2.422166-47.38931-7.199982l-36.024471-7.489578a8.480138 8.480138 0 0 1-3.92438-1.987261c-5.227048-4.713348-8.419763-8.066723-9.005094-8.694009l-24.959462-26.569122c-2.691295-2.864234-3.02694-7.296173-0.798178-10.535961a8.414647 8.414647 0 0 1 6.936992-3.64604c1.094938 0 2.165316 0.209778 3.177366 0.621147l33.746592 13.81668c0.459464 0.188288 46.937009 18.996656 78.238922 18.996656H590.635453c12.83226-0.588401 25.364691-5.350868 26.15366-7.927553-0.010233-1.227967-0.010233-2.682086-0.132007-3.263323-0.231267-0.151449-0.86981-0.487094-2.472307-0.99363-7.703449-2.436492-25.761734-3.568269-56.824193-3.568269-45.923936 0-90.917686-25.932626-92.812849-27.039843a7.615445 7.615445 0 0 1-0.338715-0.207731l-0.708128-0.465605a6.541997 6.541997 0 0 1-0.36839-0.254803c-0.405229-0.295735-42.426275-30.947849-54.646597-38.581713-1.309832-0.819668-2.607384-1.635243-3.895727-2.447749l-0.536213-0.335644c-17.594727-11.07422-32.790824-20.633946-52.798506-20.633947-11.083429 0-23.432689 2.739391-37.743626 8.377808-23.752983 9.365298-67.127863 29.043477-93.39511 41.119513l54.423517 120.801297 19.156292-12.44852c12.260232-7.782244 23.093974-12.95301 36.259832-12.95301 10.469446 0 21.076014 3.162016 35.474956 10.562567 5.989411 3.082198 15.032368 7.760754 25.542746 13.195533l0.340761 0.180102c30.931476 16.001439 77.679174 40.179095 91.538832 46.898123 15.141862 7.339152 28.164456 10.908444 39.818891 10.908444 17.020652 0 29.882588-8.073886 43.499723-16.614399 3.65218-2.289136 7.353478-4.615111 11.200087-6.831592 23.946388-13.793144 190.313463-124.027781 207.704552-136.329969 18.84623-13.293771 21.813818-20.914332 22.217001-23.573905 0.184195-1.203408 0.062422-2.831488-2.194992-5.762237-3.400446-4.423753-8.110725-6.480598-14.827707-6.480598-9.960863 0-22.703071 4.546549-37.874609 13.513782l-15.728216 9.29469a8.428973 8.428973 0 0 1-4.284583 1.172709 8.350179 8.350179 0 0 1-4.946662-1.609661 8.411577 8.411577 0 0 1-3.270487-8.628518l3.954055-17.836227c0.707105-3.194762-0.004093-4.600785-0.700965-5.473665-1.475608-1.839905-5.273097-3.694135-10.43056-3.694135-14.398942 0-26.033933 4.39203-34.579563 13.057387l-6.421246 6.510274a8.339946 8.339946 0 0 1-6.545067 2.488681 8.391111 8.391111 0 0 1-6.15007-3.309372l-5.533016-7.282871c-7.468089-9.828856-12.538571-11.844769-17.85567-11.844769-8.405437 0-21.715581 5.718235-40.688701 17.483187-8.66331 5.371334-18.900465 11.874445-19.195178 12.029987a8.515954 8.515954 0 0 1-5.375427 0.868787l-35.338857-6.102998c-3.504824-0.604774-8.045233-3.365654-8.645914-6.873548-0.596588-3.511987-0.693802-1.690502 2.412956-3.425006 0.474814-0.267083 33.18582-23.442922 48.91506-33.194006 22.76754-14.118556 39.661302-13.868869 52.818973-13.557784 1.698688 0.041956 3.437286 0.084934 5.096064 0.084935 12.121062 0 22.801309 4.090155 32.540114 12.487405 12.676717-7.93267 27.991518-12.105712 44.541449-12.105712 14.70798 0 27.802206 5.806239 35.922141 15.925714a36.396955 36.396955 0 0 1 3.384073 4.997828c12.251022-5.083785 23.659863-7.66047 33.973766-7.660471 21.442358 0 33.983999 10.457166 40.730657 19.230994 7.340175 9.532097 10.240225 19.823488 8.612145 30.584576-2.330068 15.435551-13.670348 29.858028-35.675524 45.389769-17.563004 12.417821-185.9112 123.929544-210.242352 137.943722-3.28686 1.896186-6.573719 3.960195-10.055007 6.142908-16.226566 10.181897-34.537608 21.673625-60.960396 21.673625v-0.010233h-0.008187v-0.002047zM497.47161 459.328383c1.189082-9.250688 1.899256-18.975167 1.899257-30.598902V412.600129h-35.818787c-10.673084 0-16.84055 0.473791-24.90625 1.898233V387.457496c8.303106 1.422396 13.994736 1.899256 24.90625 1.899256h35.818787v-7.116071l-7.830339-12.097526h-27.513634c-10.912537 0-16.841573 0.473791-24.90625 1.898233V345.000522c7.825222 1.423419 13.993712 1.899256 24.90625 1.899256h13.282514l-32.971949-52.184523c-6.880711-10.673084-13.047154-19.925818-16.605189-24.431435h40.798194c2.134617 6.878664 4.743024 12.094456 11.384282 23.2444l35.105542 60.249199 35.106566-60.011792c6.640234-11.149944 9.488095-17.080004 11.386328-23.482831h41.037649c-3.083222 4.03285-12.573363 17.551748-16.84362 24.431436l-32.732496 52.183499h13.283538c10.674107 0 17.07898-0.472767 24.906249-1.899256v27.040866c-8.063653-1.422396-14.470573-1.89721-24.906249-1.897209h-27.752064l-7.827269 12.334933v6.878664h35.104519c10.673084 0 16.606213-0.471744 24.908296-1.89721v27.03882c-8.065699-1.422396-14.470573-1.89721-24.908296-1.89721h-35.104519v16.131399c0 13.517875 0.475837 21.10876 1.896186 30.596855h-35.103496z" fill="" p-id="4900"></path><path d="M501.88513 955.091584c-59.805084 0-117.835755-11.718903-172.479283-34.830273-52.765761-22.319331-100.149954-54.263881-140.833539-94.948489s-72.629157-88.067778-94.947466-140.833539C70.512449 629.836779 58.793546 571.806107 58.793546 512s11.718903-117.835755 34.831296-172.479283c22.318308-52.765761 54.262858-100.149954 94.947466-140.833539s88.067778-72.629157 140.833539-94.947466c54.642504-23.112394 112.673176-34.831296 172.479283-34.831296s117.835755 11.718903 172.479283 34.831296c52.765761 22.318308 100.148931 54.262858 140.833539 94.947466s72.630181 88.067778 94.948489 140.833539c23.11137 54.642504 34.830273 112.673176 34.830273 172.479283s-11.718903 117.835755-34.830273 172.479283c-22.319331 52.765761-54.263881 100.148931-94.948489 140.833539s-88.067778 72.630181-140.833539 94.948489c-54.643528 23.11137-112.674199 34.830273-172.479283 34.830273z m0-835.017858c-216.108966 0-391.926274 175.817308-391.926274 391.926274s175.817308 391.926274 391.926274 391.926274 391.926274-175.817308 391.926274-391.926274-175.817308-391.926274-391.926274-391.926274z" fill="" p-id="4901"></path></svg>