<?xml version="1.0" standalone="no"?><!DOCTYPE svg PUBLIC "-//W3C//DTD SVG 1.1//EN" "http://www.w3.org/Graphics/SVG/1.1/DTD/svg11.dtd"><svg t="1522921070116" class="icon" style="" viewBox="0 0 1024 1024" version="1.1" xmlns="http://www.w3.org/2000/svg" p-id="7463" xmlns:xlink="http://www.w3.org/1999/xlink" width="200" height="200"><defs><style type="text/css"></style></defs><path d="M378.944 284.096 378.944 195.392c0-15.744 12.8-28.48 28.544-28.48l200.448 0c15.744 0 28.48 12.736 28.48 28.48l0 88.768 67.776 0L704.192 149.44c0-20.992-17.024-38.08-38.016-38.08L349.248 111.36c-20.992 0-38.016 17.088-38.016 38.08l0 134.656L378.944 284.096z" p-id="7464"></path><path d="M626.048 569.536 549.824 569.536 549.824 493.312 474.112 493.312 474.112 569.536 397.952 569.536 397.952 645.248 474.112 645.248 474.112 721.408 549.824 721.408 549.824 645.248 626.048 645.248Z" p-id="7465"></path><path d="M864.896 300.608 159.04 300.608C106.56 300.608 64 343.168 64 395.712l0 421.952c0 52.48 42.56 94.976 95.04 94.976l705.792 0c52.48 0 95.104-42.496 95.104-94.976L959.936 395.712C960 343.168 917.376 300.608 864.896 300.608zM191.808 857.664 159.68 857.664 159.68 357.376l32.128 0L191.808 857.664zM512 805.12c-106.816 0-193.408-86.656-193.408-193.408S405.184 418.304 512 418.304s193.344 86.592 193.344 193.344S618.816 805.12 512 805.12zM854.848 857.664l-32.064 0L822.784 357.376l32.064 0L854.848 857.664z" p-id="7466"></path></svg>